<?xml version="1.0" encoding="utf-8"?>
<!-- Generator: Adobe Illustrator 14.0.0, SVG Export Plug-In . SVG Version: 6.00 Build 43363)  -->
<!DOCTYPE svg PUBLIC "-//W3C//DTD SVG 1.1//EN" "http://www.w3.org/Graphics/SVG/1.1/DTD/svg11.dtd">
<svg version="1.1" id="Vrstva_1" xmlns="http://www.w3.org/2000/svg" xmlns:xlink="http://www.w3.org/1999/xlink" x="0px" y="0px"
	 width="419.527px" height="297.638px" viewBox="0 0 419.527 297.638" enable-background="new 0 0 419.527 297.638"
	 xml:space="preserve">
<path fill="#2B2A29" d="M52.2,160.728h-0.742c-0.197-3.221-2.442-6.401-6.712-6.401c-5.109,0-6.487,4.84-6.487,9.484
	c0,4.888,1.776,8.72,6.563,8.72c3.06,0,4.817-0.989,4.817-4.286c0-2.276-0.113-2.716-2.938-2.716v-0.661l8.434-0.012v0.662
	c-2.541,0-2.75,0.906-2.75,2.345v4.022c-1.348,0-1.667-0.202-3.408,0.573c-1.479,0.659-2.954,0.971-4.559,0.971
	c-5.491,0-9.454-4.035-9.454-9.729c0-5.192,3.458-10.137,9.784-10.137c2.607,0,4.368,0.981,6.233,2.712l0.556-2.383l0.665-0.008
	V160.728z"/>
<path fill="#2B2A29" d="M57.25,163.589c0-5.724,3.961-9.924,10.333-9.924c5.378,0,10.513,3.179,10.513,9.771
	c0,6.651-4.938,9.932-10.626,9.932C61.98,173.368,57.25,169.37,57.25,163.589 M60.627,163.6c0,4.869,1.888,8.991,7.013,8.991
	c5.012,0,7.161-3.822,7.161-9.089c0-4.052-1.034-9.06-7.33-9.06C61.511,154.443,60.627,159.343,60.627,163.6z"/>
<path fill="#2B2A29" d="M82.46,159.491c0-0.92,0.113-3.174-0.169-3.95c-0.366-0.978-1.348-0.867-2.8-0.867v-0.662
	c1.352,0.029,7.065,0.029,9.16,0v0.662c-2.165,0-2.788-0.051-3.153,0.927c-0.282,0.776-0.209,2.956-0.209,3.876v8.513
	c0,4.178-0.278,4.285,4.139,4.285c1.324,0,2.601,0.168,3.617-0.782c1.213-1.135,1.798-2.584,2.156-4.205h0.704l-0.196,5.667
	c0,0-11.404,0.068-16.248,0.098v-0.661c0.901,0,2.382-0.173,2.73-0.909c0.28-0.596,0.258-1.281,0.258-3.899L82.46,159.491z"/>
<path fill="#2B2A29" d="M112.518,158.648h-0.648c-0.289-1.399-0.693-2.783-1.832-3.452c-1.019-0.599-2.789-0.555-4.525-0.539
	c-1.163,0.01-2.086,0.015-2.086,0.015v7.939c4.273,0,4.378-0.074,4.543-2.892h0.704c-0.028,1.295-0.013,5.519,0.015,6.697h-0.749
	c-0.225-3.206-0.509-3.102-4.513-3.102v4.241c0,0.891,0,3.02,0.281,3.796c0.423,1.15,1.802,0.921,2.788,0.978v0.662
	c-1.436-0.029-7.27-0.029-8.762,0v-0.662c0.901,0,2.146,0.141,2.58-0.938c0.309-0.767,0.213-2.944,0.213-3.864v-8.11
	c0-0.92,0.066-3.234-0.213-4.012c-0.335-0.936-1.799-0.776-2.7-0.776v-0.661c1.718,0.028,11.891,0.088,14.904,0.059V158.648z"/>
<path fill="#2B2A29" d="M138.414,158.057c-1.048-2.518-1.257-3.327-3.594-3.413v-0.662c1.323,0.028,6.73,0.028,8.109,0v0.662
	c-1.938,0-2.448,0.207-2.342,1.346c0.092,1.002,2.44,5.698,2.892,6.906l3.061,7.19l2.797-6.605c0.506-1.41,2.742-6.047,2.742-7.312
	c0-1.199-1.174-1.496-2.244-1.496v-0.662c1.07,0.029,4.821,0.029,5.806,0v0.662c-2.14-0.018-2.763,2.416-3.495,4.371l-6.165,14.45
	h-0.845L138.414,158.057z"/>
<path fill="#2B2A29" d="M168.16,169.284c0,2.732,0.084,2.876,2.787,3.106v0.661c-1.407-0.029-2.815-0.087-4.223-0.115
	c-1.436,0.028-2.872,0.086-4.308,0.115v-0.661c2.731-0.23,2.844-0.403,2.844-3.106v-3.566l-2.604-4.462
	c-0.428-0.517-3.042-5.059-4.028-6.064c-0.479-0.547-0.958-0.402-1.633-0.518v-0.662c1.267,0.029,6.476,0.029,7.799,0v0.662
	c-0.619,0-2.229-0.148-2.229,0.829c0,0.748,0.511,1.472,0.849,2.104l4.268,6.933l1.802-2.934c0.591-1.008,2.928-4.461,2.879-5.495
	c-0.067-1.461-1.359-1.351-2.119-1.437v-0.662c1.019-0.014,5.266-0.014,6.221,0v0.662c-1.833,0-2.798,1.571-3.434,2.56l-4.871,8.226
	V169.284z M165.823,152.244l1.821-2.921c0.249-0.367,0.791-1.159,1.078-1.506c0.764-0.921,1.599-0.544,1.865-0.067
	c0.427,0.764-0.731,1.644-1.326,2.135l-2.81,2.382L165.823,152.244z"/>
<path fill="#2B2A29" d="M190.265,164.559v4.657c0,2.732,0.084,2.875,2.788,3.105v0.707c-1.379-0.029-6.955-0.029-8.391,0v-0.707
	c0.901,0,2.056,0,2.421-0.977c0.282-0.777,0.282-2.906,0.282-3.826v-8.11c0-0.92,0-3.049-0.282-3.825
	c-0.365-0.978-1.52-0.978-2.421-0.978v-0.662c1.352,0.029,6.927,0.029,8.391,0v0.662c-2.703,0.229-2.788,0.402-2.788,3.105v5.754
	c1.352-1.437,7.417-6.013,7.718-7.693c0.157-0.876-1.121-1.058-1.966-1.144v-0.662c1.127,0.029,6.216,0.007,7.201-0.022v0.662
	c-1.548,0.028-2.561,0.582-3.707,1.504l-5.933,5.528l4.697,4.831c0.338,0.432,4.375,4.443,5.699,5.422
	c0.563,0.431,1.3,0.419,1.976,0.476v0.662c-1.492-0.029-8.351-0.029-9.788,0l0.02-0.684c0.507,0,2.841,0.01,2.768-0.864
	c-0.067-0.809-2.809-3.363-3.258-3.91l-4.158-4.18L190.265,164.559z"/>
<path fill="#2B2A29" d="M242.529,166.926c0,4.113-3.354,6.396-8.022,6.396c-4.275,0-7.489-1.813-7.489-7.018v-6.874
	c0-0.92,0.125-3.122-0.157-3.898c-0.366-0.978-1.646-0.904-2.547-0.904v-0.662c1.323,0.029,6.842,0.029,8.278,0v0.662
	c-0.901,0-2.083-0.029-2.421,0.978c-0.254,0.776-0.254,2.905-0.254,3.825v7.075c0,3.682,1.408,5.781,5.266,5.781
	c3.886,0,6.503-2.026,6.503-5.88v-6.299c0-1.007,0-3.222-0.282-4.112c-0.395-1.208-1.521-1.323-2.618-1.323v-0.662
	c1.098,0.029,5.35,0.029,6.42,0v0.662c-0.901,0.028-2.062,0.049-2.456,1.084c-0.394,1.035-0.22,3.201-0.22,4.352V166.926z"/>
<path fill="#2B2A29" d="M250.035,159.319c0-0.92,0-3.049-0.254-3.825c-0.309-1.007-1.784-0.978-2.686-0.978v-0.662
	c1.352,0.029,6.251,0.029,7.377,0c2.957-0.086,7.222,0.7,7.222,4.525c0,2.616-2.379,3.729-4.518,4.39v0.059
	c1.576,0.144,2.4,0.517,3.507,1.282c1.46,1.011,1.999,2.242,1.999,3.91c0,1.898-1.168,3.236-2.18,3.91
	c-1.433,0.955-3.326,0.964-4.96,0.964c-1.239-0.029-6.87-0.029-8.447,0v-0.662c0.901,0,2.377,0.029,2.686-0.977
	c0.254-0.777,0.254-2.906,0.254-3.826V159.319z M252.862,162.482l0.682,0.029c1.239,0,2.253,0.058,3.351-0.604
	c1.183-0.777,1.787-1.663,1.787-3.394c0-3.012-1.697-4.009-4.204-4.009c-0.365,0-1.661,0-1.661,0s0.046,1.275,0.046,1.505V162.482z
	 M252.862,167.256c0,0.978-0.001,3.136,0.18,4.045c0.218,1.102,1.806,0.943,2.877,0.943c2.27,0,3.617-1.739,3.617-4.472
	c0-1.64-0.333-3.105-1.798-3.91c-1.295-0.69-2.786-0.575-4.223-0.575l-0.653-0.029V167.256z"/>
<path fill="#2B2A29" d="M292.936,159.42c0-0.92,0.084-3.251-0.191-4.03c-0.329-0.929-1.941-0.776-2.842-0.776v-0.662
	c1.352,0.029,7.318,0.044,8.726,0.015v0.662c-0.9,0-2.393-0.212-2.723,0.941c-0.228,0.795-0.22,2.911-0.22,3.831v8.111
	c0,0.919,0,3.048,0.281,3.824c0.367,0.979,1.761,1.009,2.661,1.009v0.661c-1.323-0.029-7.317-0.059-8.726-0.03v-0.661
	c0.9,0,2.386,0.039,2.752-0.938c0.281-0.777,0.281-2.905,0.281-3.825V159.42z"/>
<path fill="#2B2A29" d="M301.108,166.582h0.646c0.563,2.905,2.59,5.993,5.582,5.993c2.195,0,4.255-1.064,4.255-3.73
	c0-2.727-2.947-3.582-5.063-4.495c-3.506-1.513-5.418-3.131-5.418-5.686c0-2.899,1.975-5.071,5.043-5.071
	c2.337,0,3.521,0.839,4.585,2.068l0.568-1.649l0.689-0.014v4.943l-0.719-0.016c-0.375-1.992-1.993-4.63-5.079-4.63
	c-2.337,0-3.146,1.634-3.146,3.072c0,1.902,2.345,3.108,4.074,3.895c3.49,1.589,6.547,2.098,6.547,6.728
	c0,3.626-2.757,5.349-6.353,5.349c-1.914,0-3.625-0.854-4.944-2.396l-0.613,1.888h-0.659L301.108,166.582z M307.202,150.25
	l2.472-3.071h0.554l-2.636,4.869l-1.394,0.016l-2.742-4.884h0.63L307.202,150.25z"/>
<path fill="#2B2A29" d="M317.975,156.034c-0.016-0.539-0.765-1.617-2.9-1.48v-0.662c0.901,0.029,5.03,0.029,5.761,0l11.091,14.848
	h0.056l0.046-8.016c0-1.236,0.163-3.345-0.09-4.523c-0.338-1.61-1.588-1.573-3.084-1.646v-0.662c1.042,0.029,5.879,0.029,6.921,0
	v0.662c-1.042,0.115-2.313,0.028-2.679,1.266c-0.282,0.92-0.339,3.882-0.339,5.033l0.068,12.553h-0.846
	c-0.619-0.776-1.306-1.739-1.926-2.545l-11.301-15.155h-0.057v11.187c0,1.064-0.186,3.237,0.237,4.215
	c0.479,1.121,1.888,1.168,2.927,1.163v0.662c-1.069-0.028-5.92-0.014-6.963,0.016v-0.662c1.099-0.114,2.328-0.1,2.853-1.163
	c0.342-0.694,0.225-3.333,0.225-4.455V156.034z"/>
<path fill="#2B2A29" d="M364.126,153.963h0.63l0.18,7.396h-0.647c0-2.621-2.432-7.048-6.791-7.048c-4.989,0-6.63,4.922-6.63,9.236
	c0,4.343,1.865,8.967,6.606,8.967c4.45,0,6.54-3.483,6.766-6.676h0.692v6.748h-0.569l-0.888-2.096
	c-1.708,2.091-3.753,2.809-6.37,2.809c-5.676,0-9.519-3.51-9.519-9.707c0-5.838,3.394-9.995,9.771-9.995
	c3.15,0,4.769,1.657,6.207,2.871L364.126,153.963z"/>
<path fill="#2B2A29" d="M370.307,159.57c0-0.921,0.113-3.528-0.202-4.292c-0.27-0.651-1.361-0.549-2.263-0.549v-0.777l13.679,0.022
	l0.451,4.681l-0.766-0.006c-0.535-3.365-1.506-3.888-5.002-3.92l-3.083-0.03l-0.028,7.995c4.405,0,4.92,0.022,4.92-3.014h0.647
	c-0.028,1.294-0.028,5.355,0,6.534h-0.647c0-3.408-0.896-2.869-4.92-2.869v4.842c0,0.863-0.058,2.693,0.45,3.384
	c0.731,1.007,3.008,0.703,4.135,0.674c2.928-0.058,3.888-0.831,5.381-5.244h0.646v0.016l-0.545,5.918H367.55v-0.661
	c0.901,0,2.17,0.271,2.577-0.882c0.274-0.779,0.18-2.968,0.18-3.888V159.57z"/>
<path fill="#2B2A29" d="M114.032,163.589c0-5.723,3.962-9.923,10.334-9.923c5.377,0,10.513,3.179,10.513,9.771
	c0,6.651-4.938,9.931-10.626,9.931C118.762,173.368,114.032,169.371,114.032,163.589 M117.41,163.6c0,4.87,1.888,8.991,7.012,8.991
	c5.012,0,7.161-3.821,7.161-9.088c0-4.052-1.034-9.06-7.33-9.06C118.293,154.444,117.41,159.344,117.41,163.6z"/>
<path fill="#2B2A29" d="M210.706,159.424c0-0.92,0.114-3.175-0.168-3.951c-0.366-0.978-1.348-0.867-2.8-0.867v-0.662
	c1.351,0.029,7.065,0.029,9.161,0v0.662c-2.165,0-2.788-0.051-3.153,0.927c-0.282,0.776-0.21,2.956-0.21,3.876v8.514
	c0,4.177-0.278,4.285,4.14,4.285c1.323,0,2.601,0.167,3.616-0.783c1.214-1.135,1.798-2.584,2.156-4.206h0.704l-0.197,5.667
	c0,0-11.403,0.069-16.247,0.099v-0.662c0.901,0,2.382-0.172,2.729-0.908c0.281-0.596,0.259-1.281,0.259-3.899L210.706,159.424z"/>
<path fill="#2B2A29" d="M274.739,159.491c0-0.92,0.113-3.174-0.168-3.95c-0.366-0.978-1.349-0.867-2.801-0.867v-0.662
	c1.352,0.029,7.064,0.029,9.16,0v0.662c-2.164,0-2.787-0.051-3.153,0.927c-0.281,0.776-0.209,2.956-0.209,3.876v8.513
	c0,4.178-0.278,4.285,4.14,4.285c1.323,0,2.6,0.168,3.616-0.782c1.214-1.135,1.798-2.584,2.156-4.205h0.704l-0.197,5.667
	c0,0-11.403,0.068-16.246,0.098v-0.661c0.9,0,2.382-0.173,2.729-0.909c0.281-0.596,0.259-1.281,0.259-3.899L274.739,159.491z"/>
<path fill="#2B2A29" d="M292.527,152.199l1.82-2.921c0.249-0.367,0.791-1.159,1.078-1.505c0.765-0.921,1.599-0.544,1.865-0.067
	c0.428,0.764-0.73,1.644-1.325,2.135l-2.81,2.382L292.527,152.199z"/>
<path fill="#2B2A29" d="M340.519,159.42c0-0.92,0.084-3.251-0.191-4.03c-0.329-0.929-1.94-0.776-2.842-0.776v-0.662
	c1.353,0.029,7.318,0.044,8.726,0.015v0.662c-0.9,0-2.393-0.212-2.723,0.941c-0.228,0.795-0.22,2.911-0.22,3.831v8.111
	c0,0.919,0,3.048,0.282,3.824c0.366,0.979,1.76,1.009,2.66,1.009v0.661c-1.323-0.029-7.317-0.059-8.726-0.03v-0.661
	c0.901,0,2.387,0.039,2.752-0.938c0.281-0.777,0.281-2.905,0.281-3.825V159.42z"/>
<path fill-rule="evenodd" clip-rule="evenodd" fill="#2B2A29" d="M379.625,124.842c-1.857-0.18-5.363,3.446-7.102,5.963
	s-3.206,6.922-5.603,8.899c-0.409,0.337-1.026,0.563-1.888,0.629c-2.978,0.228-8.72-0.36-8.72-0.36l-0.39,0.27l-121.895-10.457
	c0,0,9.858-1.039,15.821-1.319c0.194-0.009,0.744,0.219,0.929,0.21c2.111-0.098,3.256-0.08,3.446-0.09
	c1.108-0.06,1.198-1.109,1.198-1.109s-0.239-4.015-0.359-4.734s-1.318-0.689-1.318-0.689s-2.996-0.03-3.356,0.03
	c-0.359,0.06-0.719,0.54-0.719,0.54l-38.234,4.135c0,0-41.71-4.165-42.279-4.165c-0.36,0-0.33-0.33-0.81-0.51
	c-0.479-0.18-2.997-0.18-3.416-0.18c-0.419,0-1.019,0.18-1.199,0.959s-0.509,4.645,0.18,5.244c0.452,0.394,3.56,0.369,4.165,0.449
	c0.45,0.06,0.569-0.209,0.569-0.209l21.454,1.168L59.728,141.472l-0.09-0.359l-2.697,0.12c0,0-0.149-0.299-2.457-0.03
	c-2.121,0.248-4.974,0.899-5.933-0.18c-0.652-0.734-0.21-1.948-0.299-4.075c-0.079-1.88-1.619-9.559-2.098-11.237
	c-0.479-1.678-1.558-2.906-2.816-3.386c0,0-1.468-0.509-2.547-0.33c-1.079,0.18-4.645,2.068-5.903,5.543
	c-1.259,3.476,1.438,5.394,2.816,8.87c1.378,3.476,9.648,7.611,10.847,8.15c1.199,0.54,2.517,0.479,3.176,0.299
	s5.214-0.719,5.214-0.719l0.12-0.419h2.577l0.061-0.599l136.517-11.476l1.168,0.479l13.843-0.839l6.353,0.209l0.479-0.689
	l137.626,11.506l0.33,0.449c0,0,7.641,0.569,10.218,0.779c1.583,0.129,2.07,1.802,5.603,0.959
	c6.532-1.559,9.499-5.843,11.477-12.286C384.727,127.6,381.482,125.021,379.625,124.842 M37.615,126.759
	c-0.584,1.798-0.539,3.596-0.539,3.596s-0.899-0.18-1.079-0.629c-0.18-0.45,0.044-1.304,0.449-2.427
	c0.491-1.364,2.157-2.876,2.157-2.876S38.163,125.074,37.615,126.759z M381.153,127.958c-0.779-0.839-1.439-1.139-1.918-1.139
	c-0.479,0-0.12-1.618-0.12-1.618s1.678-0.12,2.457,1.438s1.259,3.656,1.259,3.656S381.932,128.797,381.153,127.958z"/>
<path fill="#2B2A29" d="M192.024,141.873v-0.645c-0.785-0.056-1.861,0.064-1.996-0.685c-0.139-0.77-0.13-2.033-0.13-2.818
	l0.04-14.831h-0.764c0,0-1.02,1.018-3.647,1.059v0.634h0.561c0.617,0,1.367,0.064,1.648,0.569c0.308,0.533,0.194,1.99,0.194,2.607
	l-0.014,9.949c0,0.645,0.086,2.3-0.166,2.861c-0.336,0.729-1.383,0.597-2.112,0.625v0.645c0.404-0.008,0.977-0.012,1.623-0.012
	C188.903,141.831,191.018,141.853,192.024,141.873"/>
<path fill="#2B2A29" d="M201.063,123.059c-3.562,0-5.852,3.033-5.852,6.427c0,3.169,2.472,5.573,5.769,5.573
	c1.907,0,3.061-1.019,3.705-1.978h0.056c0.079,3.73-0.532,8.645-4.375,8.645c-2.427,0-2.202-2.337-3.431-2.337
	c-0.701,0-0.914,0.329-0.914,0.974c0,1.243,2.053,2.097,3.925,2.097c5.61,0,7.297-5.978,7.297-10.967
	C207.242,127.652,205.662,123.059,201.063,123.059 M204.62,131.704c-0.727,1.709-1.629,2.546-3.311,2.546
	c-3.001,0-3.64-2.722-3.64-4.993c0-2.356,0.545-5.464,3.355-5.464c3.527,0,3.716,3.94,3.716,6.352L204.62,131.704z"/>
<path fill="#2B2A29" d="M211.602,140.153c2.038-1.753,3.618-3.517,5.149-5.191c2.103-2.299,3.766-3.544,3.766-6.749
	c0-3.086-2.174-5.259-5.484-5.259c-2.664,0-5.434,1.518-5.434,4.575c0,1.963,1.269,3.259,1.705,3.275c0.002,0,0.004,0,0.006,0
	c0.426,0,1.64-1.334,1.312-1.438c-0.545-0.174-1.693-1.004-1.693-2.382c0-1.992,1.589-3.236,3.94-3.236
	c1.964,0,3.28,2.191,3.28,4.435c0,3.731-1.798,5.424-4.179,8.285c-1.485,1.783-2.682,2.832-4.451,4.54v0.839l8.673,0.015
	c0.001,0,0.002,0,0.002,0c0.531,0,0.705,0,0.674,0.554l-0.059,0.974l0.658,0.042l0.839-3.293L211.602,140.153z"/>
<path fill="#2B2A29" d="M230.46,132.128c2.414-0.564,3.734-2.285,3.734-4.334c0-2.757-1.963-4.869-5.394-4.869
	c-3.341,0-5.272,1.993-5.272,4.854c0,2.179,1.239,3.888,3.595,4.375c-2.468,0.615-4.263,2.563-4.263,4.972
	c0,3.237,2.439,5.228,5.89,5.228c3.478,0,6.086-2.036,6.086-5.228C234.836,134.691,233.041,132.718,230.46,132.128 M225.748,127.848
	c0-2.768,1.094-4.152,3.002-4.152c2.048,0,3.113,1.384,3.113,4.177c0,2.64-0.981,3.973-2.973,3.973
	C226.786,131.846,225.748,130.513,225.748,127.848z M228.891,141.713c-2.215,0-3.625-1.455-3.625-4.556
	c0-3.075,1.44-4.524,3.46-4.524c2.159,0,3.656,1.468,3.656,4.569C232.382,140.278,231.021,141.713,228.891,141.713z"/>
<path fill="#D9DADA" d="M191.596,121.242H188.4l-0.374,0.456c-0.155,0.109-0.913,0.577-2.526,0.603l-1.627,0.025v3.916h2.214
	c0.077,0,0.143,0.001,0.201,0.003c0.016,0.353,0.003,0.813-0.003,1.053c-0.005,0.179-0.01,0.339-0.01,0.466l-0.014,9.946
	c0,0.125,0.003,0.281,0.006,0.458c0.005,0.288,0.017,0.914-0.006,1.368c-0.094,0.002-0.189,0.002-0.264,0.003
	c-0.146,0-0.289,0.001-0.422,0.006l-1.591,0.062v3.923l1.687-0.033c0.396-0.008,0.957-0.011,1.59-0.011
	c1.656,0,3.745,0.021,4.731,0.041l1.687,0.034v-3.873l-1.536-0.109c-0.156-0.012-0.322-0.018-0.49-0.022
	c-0.021-0.001-0.045-0.001-0.069-0.002c-0.033-0.567-0.033-1.239-0.033-1.7v-0.129l0.041-14.826L191.596,121.242z M185.638,141.198
	c0.729-0.028,1.776,0.104,2.112-0.625c0.252-0.561,0.166-2.216,0.166-2.861l0.014-9.949c0-0.617,0.114-2.074-0.194-2.607
	c-0.282-0.504-1.031-0.569-1.648-0.569h-0.561v-0.634c2.628-0.041,3.647-1.059,3.647-1.059h0.764l-0.04,14.831
	c0,0.786-0.009,2.048,0.13,2.818c0.135,0.749,1.211,0.628,1.996,0.685v0.645c-1.006-0.02-3.121-0.042-4.764-0.042
	c-0.646,0-1.218,0.003-1.623,0.012V141.198z"/>
<path fill="#D9DADA" d="M234.044,132.056c1.145-1.095,1.804-2.583,1.804-4.262c0-3.841-2.897-6.523-7.047-6.523
	c-3.679,0-6.281,2.065-6.819,5.252c-0.699-3.143-3.358-5.222-6.949-5.222c-3.23,0-6.488,1.804-7.007,5.257
	c-1.131-2.943-3.393-5.153-6.962-5.153c-4.279,0-7.506,3.474-7.506,8.082c0,4.12,3.191,7.227,7.423,7.227
	c0.677,0,1.323-0.099,1.927-0.293c-0.218,1.458-0.627,2.544-1.196,3.125c-0.357,0.365-0.772,0.528-1.345,0.528
	c-0.5,0-0.578-0.1-0.965-0.701c-0.368-0.572-1.051-1.636-2.465-1.636c-1.56,0-2.568,1.031-2.568,2.627
	c0,2.348,2.837,3.751,5.579,3.751c5.521,0,8.951-4.836,8.951-12.621c0-0.244-0.01-0.487-0.021-0.73
	c0.649,1.015,1.543,1.664,2.368,1.694l0.029,0.001l0.036,0c1.329,0,2.84-1.702,2.998-2.728c0.135-0.864-0.364-1.68-1.186-1.941
	c0,0,0,0,0.001,0c0.007,0-0.541-0.288-0.541-0.806c0-1.428,1.599-1.583,2.286-1.583c0.852,0,1.627,1.326,1.627,2.781
	c0,2.739-1.155,4.103-3.07,6.364c-0.235,0.277-0.478,0.564-0.727,0.863c-1.127,1.354-2.096,2.277-3.322,3.445
	c-0.317,0.302-0.65,0.62-1.006,0.964l-0.505,0.487v3.192l1.651,0.003l7.629,0.014l-0.087,1.419l1.644,0.107l0.659,0.043l1.371,0.089
	l0.339-1.332l0.838-3.293l0.057-0.224c1.177,2.264,3.643,3.686,6.785,3.686c4.485,0,7.739-2.895,7.739-6.882
	C236.489,135.109,235.575,133.304,234.044,132.056 M199.945,142.46c-1.872,0-3.925-0.854-3.925-2.097
	c0-0.645,0.212-0.974,0.914-0.974c1.229,0,1.004,2.337,3.431,2.337c3.843,0,4.454-4.915,4.375-8.645h-0.056
	c-0.644,0.958-1.797,1.978-3.705,1.978c-3.296,0-5.769-2.404-5.769-5.573c0-3.394,2.291-6.427,5.852-6.427
	c4.599,0,6.18,4.593,6.18,8.435C207.242,136.483,205.555,142.46,199.945,142.46z M228.75,142.354c-3.45,0-5.89-1.991-5.89-5.228
	c0-2.409,1.795-4.357,4.263-4.972c-2.355-0.487-3.595-2.197-3.595-4.375c0-2.861,1.932-4.854,5.272-4.854
	c3.431,0,5.394,2.112,5.394,4.869c0,2.05-1.32,3.771-3.734,4.334c2.581,0.59,4.376,2.563,4.376,4.998
	C234.836,140.318,232.228,142.354,228.75,142.354z M218.809,143.39l0.059-0.974c0.031-0.554-0.143-0.554-0.673-0.554
	c0,0-0.002,0-0.003,0l-8.673-0.015v-0.839c1.769-1.708,2.965-2.757,4.451-4.54c2.381-2.861,4.179-4.554,4.179-8.285
	c0-2.244-1.316-4.435-3.28-4.435c-2.352,0-3.94,1.245-3.94,3.236c0,1.378,1.148,2.208,1.693,2.382
	c0.328,0.104-0.886,1.438-1.312,1.438c-0.002,0-0.004,0-0.006,0c-0.436-0.016-1.705-1.312-1.705-3.275
	c0-3.057,2.77-4.575,5.434-4.575c3.311,0,5.484,2.172,5.484,5.259c0,3.205-1.663,4.45-3.766,6.749
	c-1.531,1.675-3.111,3.438-5.149,5.191l8.704-0.015l-0.839,3.293L218.809,143.39z M220.303,138.485l-4.568,0.007
	c0.676-0.705,1.313-1.402,1.94-2.09l0.296-0.324c0.282-0.308,0.556-0.597,0.819-0.874c1.511-1.595,2.946-3.116,3.297-5.735
	c0.266,1.036,0.775,1.937,1.499,2.652c-1.49,1.251-2.38,3.034-2.38,5.004c0,0.47,0.047,0.922,0.128,1.357L220.303,138.485z"/>
<path fill="#D9DADA" d="M231.863,127.874c0-2.793-1.065-4.177-3.113-4.177c-1.908,0-3.002,1.384-3.002,4.152
	c0,2.665,1.038,3.998,3.143,3.998C230.882,131.846,231.863,130.513,231.863,127.874 M228.75,125.35c0.545,0,1.46,0,1.46,2.523
	c0,2.319-0.763,2.319-1.319,2.319c-0.663,0-1.488,0-1.488-2.344C227.402,125.35,228.347,125.35,228.75,125.35z"/>
<path fill="#D9DADA" d="M228.726,132.633c-2.02,0-3.46,1.449-3.46,4.524c0,3.102,1.41,4.556,3.625,4.556
	c2.131,0,3.491-1.435,3.491-4.511C232.382,134.101,230.885,132.633,228.726,132.633 M228.891,140.06c-0.64,0-1.972,0-1.972-2.903
	c0-2.87,1.36-2.87,1.807-2.87c0.548,0,2.002,0,2.002,2.916C230.728,140.06,229.439,140.06,228.891,140.06z"/>
<path fill="#EBECEC" d="M201.024,123.793c-2.811,0-3.355,3.108-3.355,5.464c0,2.271,0.639,4.993,3.64,4.993
	c1.682,0,2.584-0.837,3.311-2.546l0.12-1.559C204.74,127.733,204.551,123.793,201.024,123.793 M201.309,132.596
	c-0.595,0-1.986,0-1.986-3.339c0-1.738,0.296-3.81,1.702-3.81c0.992,0,2.052,0.359,2.062,4.636l-0.093,1.211
	C202.432,132.504,201.973,132.596,201.309,132.596z"/>
</svg>
